# xmcd
#
# Track frame offsets: 
#        150
#        73393
#        138620
#        210535
#
# Disc length: 3686 seconds
#
# Revision: 0
# Processed by: cddbd v1.5.2PL0 Copyright (c) Steve Scherf et al.
# Submitted via: ExactAudioCopy v0.99pb5
#
DISCID=400e6404
DTITLE=Ron Lyons - Mickey Newbury An American Treasure A Tribute [CD 1
DTITLE=)
DYEAR=2004
DGENRE=Other
TTITLE0=Part 1 1940-1959 The Early Years
TTITLE1=Part 2 1963-1968 Writing In Nashville
TTITLE2=Part 3 1969 Looks Like Rain And Susan
TTITLE3=Part 4 The 70's American Trilogy Electra
EXTD=
EXTT0=
EXTT1=
EXTT2=
EXTT3=
PLAYORDER=
